<?xml version="1.0" encoding="UTF-8"?>
<svg version="1.1" xmlns="http://www.w3.org/2000/svg" width="128" height="128">
<path d="M0 0 C42.24 0 84.48 0 128 0 C128 42.24 128 84.48 128 128 C85.76 128 43.52 128 0 128 C0 85.76 0 43.52 0 0 Z " fill="#000000" transform="translate(0,0)"/>
<path d="M0 0 C-0.2475 1.19625 -0.495 2.3925 -0.75 3.625 C-1.20931445 7.19255197 -1.07357727 7.87060549 0.8125 11.1875 C1.534375 12.115625 2.25625 13.04375 3 14 C3.66 15.65 4.32 17.3 5 19 C10.28 15.04 15.56 11.08 21 7 C23.70182292 8.52994792 26.40364583 10.05989583 29.10546875 11.58984375 C31.8268483 12.91564404 34.04741945 13.47562866 37 14 C37.05009283 18.071006 37.08604089 22.14188832 37.10986328 26.21313477 C37.11981266 27.59304944 37.13337705 28.97294365 37.15087891 30.3527832 C37.41606889 51.82537188 37.41606889 51.82537188 33.41601562 57.08129883 C31.43903691 58.99319285 29.40209638 60.6210983 27.1875 62.25 C26.47529297 62.82878906 25.76308594 63.40757813 25.02929688 64.00390625 C19.79288075 68.06321866 19.79288075 68.06321866 16.5871582 67.80761719 C13.77369931 66.92935711 11.30172447 65.79689673 8.6875 64.4375 C7.80449219 63.98246094 6.92148437 63.52742188 6.01171875 63.05859375 C5.01591797 62.53458984 5.01591797 62.53458984 4 62 C4.04189453 62.76143311 4.08378906 63.52286621 4.12695312 64.30737305 C4.29353639 67.7668751 4.39736896 71.2255352 4.5 74.6875 C4.60054687 76.48477539 4.60054687 76.48477539 4.703125 78.31835938 C4.89613815 86.97982446 4.89613815 86.97982446 2.2890625 89.94775391 C-0.93612939 92.04102749 -3.12710239 93 -7 93 C-6.67 82.44 -6.34 71.88 -6 61 C-8.97 61.66 -11.94 62.32 -15 63 C-13 59 -13 59 -9.92041016 56.70483398 C-6.71475634 54.25287553 -6.71475634 54.25287553 -6.25537109 50.59008789 C-6.26133301 49.31383545 -6.26729492 48.03758301 -6.2734375 46.72265625 C-6.27244049 46.03368759 -6.27144348 45.34471893 -6.27041626 44.63487244 C-6.27507956 43.18330299 -6.2944315 41.73171468 -6.32763672 40.28051758 C-6.37480587 38.07159086 -6.36875853 35.86750532 -6.35546875 33.65820312 C-6.41213318 26.46655078 -6.62356038 21.98145547 -11 16 C-11.68630822 12.01531493 -11.39674716 10.57961005 -9.1015625 7.2265625 C-8.28429688 6.36804688 -7.46703125 5.50953125 -6.625 4.625 C-5.81289063 3.75101563 -5.00078125 2.87703125 -4.1640625 1.9765625 C-2 0 -2 0 0 0 Z " fill="#E9E9E9" transform="translate(53,22)"/>
<path d="M0 0 C0.05868218 3.9791034 0.0938239 7.95809353 0.125 11.9375 C0.14175781 13.05447266 0.15851563 14.17144531 0.17578125 15.32226562 C0.22091462 23.01750436 -0.569682 29.70904599 -3 37 C-11.35927152 34.26821192 -11.35927152 34.26821192 -14.6875 32.875 C-17.42848229 31.83787157 -20.11032875 31.45064641 -23 31 C-23.1983934 26.67693146 -23.34319621 22.35629654 -23.43945312 18.0300293 C-23.47958611 16.56015873 -23.53411158 15.09060567 -23.60351562 13.62182617 C-24.16220248 1.49092701 -24.16220248 1.49092701 -21.34619141 -2.12158203 C-13.81017394 -7.16615019 -7.37550239 -3.80398404 0 0 Z " fill="#131313" transform="translate(80,45)"/>
<path d="M0 0 C0.33 0 0.66 0 1 0 C1.09901748 4.62640153 1.17153649 9.25218387 1.21972656 13.87939453 C1.2398188 15.45274604 1.26709799 17.02602308 1.30175781 18.59912109 C1.35038494 20.86314272 1.37299135 23.12617573 1.390625 25.390625 C1.41127014 26.09181458 1.43191528 26.79300415 1.45318604 27.51544189 C1.45480426 31.05256581 1.24963271 32.6947328 -1.02441406 35.47558594 C-1.67635742 35.97864258 -2.32830078 36.48169922 -3 37 C-2.01 37.66 -1.02 38.32 0 39 C-2.97 39.66 -5.94 40.32 -9 41 C-7 37 -7 37 -3.92529297 34.71801758 C-0.70506753 32.24270804 -0.70506753 32.24270804 -0.22705078 28.49487305 C-0.21657715 27.18043213 -0.20610352 25.86599121 -0.1953125 24.51171875 C-0.17475296 23.4569207 -0.17475296 23.4569207 -0.15377808 22.3808136 C-0.11657921 20.14905221 -0.12018493 17.91952651 -0.125 15.6875 C-0.10686564 14.16858517 -0.0860606 12.64969973 -0.0625 11.13085938 C-0.01074878 7.42041099 0.00443768 3.71085513 0 0 Z " fill="#B9B9B9" transform="translate(47,44)"/>
<path d="M0 0 C0.66 0.33 1.32 0.66 2 1 C0.515 2.485 0.515 2.485 -1 4 C-0.01 4.66 0.98 5.32 2 6 C-0.97 6.66 -3.94 7.32 -7 8 C-4.9957983 3.9915966 -3.50944037 2.58590343 0 0 Z " fill="#D1D1D1" transform="translate(45,77)"/>
</svg>
